<svg xmlns="http://www.w3.org/2000/svg" width="440" height="128" viewBox="0 0 440 128" fill="none" role="img" aria-label="llmux — the Vulos LLM gateway">
  <defs>
    <linearGradient id="vg" x1="20" y1="28" x2="92" y2="100" gradientUnits="userSpaceOnUse">
      <stop offset="0" stop-color="#19a3a6"/><stop offset="1" stop-color="#C96AFF"/>
    </linearGradient>
  </defs>

  <!-- warm paper plate -->
  <rect x="0.75" y="0.75" width="438.5" height="126.5" rx="18" fill="#fbf9f5"/>
  <rect x="0.75" y="0.75" width="438.5" height="126.5" rx="18" fill="none" stroke="#ece5da" stroke-width="1.5"/>

  <!-- ===== mark (routing tile + canonical Vulos bolt + mux ports) ===== -->
  <g transform="translate(28,32)">
    <rect x="6" y="6" width="52" height="52" rx="14" fill="url(#vg)" opacity="0.12"/>
    <rect x="6" y="6" width="52" height="52" rx="14" fill="none" stroke="url(#vg)" stroke-width="2.5"/>
    <g fill="url(#vg)">
      <circle cx="6" cy="24" r="2.6"/><circle cx="6" cy="32" r="2.6"/><circle cx="6" cy="40" r="2.6"/>
      <circle cx="58" cy="32" r="2.6"/>
    </g>
    <g transform="translate(20.5 16) scale(0.62)" fill="url(#vg)">
      <path d="M25.946 44.938c-.664.845-2.021.375-2.021-.698V33.937a2.26 2.26 0 0 0-2.262-2.262H10.287c-.92 0-1.456-1.04-.92-1.788l7.48-10.471c1.07-1.497 0-3.578-1.842-3.578H1.237c-.92 0-1.456-1.04-.92-1.788L10.013.474c.214-.297.556-.474.92-.474h28.894c.92 0 1.456 1.04.92 1.788l-7.48 10.471c-1.07 1.498 0 3.579 1.842 3.579h11.377c.943 0 1.473 1.088.89 1.83L25.947 44.94z"/>
    </g>
  </g>

  <!-- ===== wordmark + ecosystem line ===== -->
  <text x="116" y="62" font-family="ui-sans-serif, 'SF Pro Display', 'Segoe UI', system-ui, sans-serif"
        font-size="46" font-weight="700" letter-spacing="-1.6" fill="#1a1916">llmu<tspan fill="#0f6a6c">x</tspan></text>
  <text x="118" y="88" font-family="ui-monospace, 'JetBrains Mono', monospace"
        font-size="11" letter-spacing="3.5" fill="#8e8470">PART OF VULOS · LLM GATEWAY</text>
</svg>
